<?xml version="1.0" standalone="no"?>
<!DOCTYPE svg PUBLIC "-//W3C//DTD SVG 20010904//EN"
 "http://www.w3.org/TR/2001/REC-SVG-20010904/DTD/svg10.dtd">
<svg version="1.0" xmlns="http://www.w3.org/2000/svg"
 width="500.000000pt" height="500.000000pt" viewBox="0 0 500.000000 500.000000"
 preserveAspectRatio="xMidYMid meet">
<metadata>
Created by potrace 1.14, written by Peter Selinger 2001-2017
</metadata>
<g transform="translate(0.000000,500.000000) scale(0.100000,-0.100000)"
fill="#000000" stroke="none">
<path d="M1720 4873 c-149 -49 -394 -161 -457 -209 -34 -26 -66 -98 -77 -172
-11 -81 -20 -167 -20 -204 -1 -21 -5 -38 -9 -38 -4 0 -4 -8 1 -17 9 -18 8 -46
-2 -95 -4 -16 -2 -28 4 -28 12 0 9 -22 -5 -32 -6 -5 -6 -8 2 -8 7 0 10 -9 7
-22 -3 -13 -5 -27 -5 -33 1 -5 3 -41 5 -80 2 -38 7 -79 12 -89 5 -14 4 -17 -5
-11 -10 6 -11 3 -2 -14 7 -11 8 -21 4 -21 -4 0 -1 -5 7 -10 13 -9 13 -10 0
-10 -11 0 -12 -2 -3 -8 7 -4 14 -17 16 -29 1 -11 11 -28 20 -37 9 -10 17 -24
17 -32 0 -8 5 -14 11 -14 8 0 8 -5 -1 -15 -10 -12 -10 -15 1 -15 8 0 4 -9 -11
-21 -14 -11 -19 -17 -11 -13 9 5 12 3 7 -4 -4 -7 -12 -12 -18 -12 -6 0 -22
-12 -36 -27 -13 -16 -21 -22 -18 -16 5 9 2 11 -8 7 -9 -3 -13 -10 -10 -15 3
-5 0 -9 -5 -9 -20 0 -26 -3 -39 -19 -8 -9 -10 -10 -6 -2 5 9 3 12 -4 7 -7 -4
-12 -15 -13 -24 0 -12 -2 -13 -6 -4 -4 10 -12 7 -31 -10 -14 -13 -22 -16 -17
-8 5 8 -3 5 -16 -7 -13 -12 -28 -23 -34 -25 -5 -2 -9 -6 -8 -10 2 -4 -5 -4
-14 -1 -9 4 -14 2 -11 -3 7 -11 -17 -35 -26 -27 -3 4 -6 1 -6 -6 0 -7 -4 -9
-10 -6 -5 3 -7 0 -4 -8 3 -8 -2 -22 -11 -30 -9 -9 -17 -20 -18 -24 -1 -4 -5
-7 -8 -6 -4 1 -5 -8 -2 -20 4 -18 3 -19 -6 -7 -9 13 -11 13 -11 -2 0 -9 -5
-20 -12 -24 -7 -5 -9 -2 -4 7 4 8 -1 4 -12 -8 -11 -13 -25 -23 -31 -23 -6 0
-11 -7 -11 -16 0 -14 -3 -14 -15 -4 -13 11 -14 10 -9 -5 5 -11 4 -16 -3 -12
-13 8 -56 -41 -47 -55 5 -7 3 -8 -5 -3 -8 4 -24 -5 -43 -26 -17 -19 -24 -25
-17 -14 13 18 13 19 -3 6 -10 -7 -18 -20 -18 -28 0 -13 -3 -13 -15 -3 -13 11
-14 10 -9 -6 4 -10 4 -16 -1 -12 -4 4 -14 0 -22 -10 -10 -11 -12 -12 -8 -2 4
10 2 9 -8 -2 -8 -10 -20 -18 -26 -18 -7 0 -10 -4 -6 -10 7 -11 -30 -51 -40
-42 -3 4 -3 -1 1 -11 4 -11 0 -19 -10 -23 -9 -3 -16 -10 -16 -16 0 -5 6 -6 13
-3 6 4 4 0 -5 -8 -14 -11 -15 -16 -5 -26 7 -7 8 -12 2 -11 -28 6 -38 0 -25
-15 11 -13 10 -14 -5 -9 -14 6 -16 3 -10 -16 6 -18 4 -22 -8 -17 -12 4 -15 1
-12 -14 2 -11 -2 -22 -10 -26 -8 -3 -15 -11 -15 -19 0 -8 -6 -11 -17 -7 -10 3
-15 3 -11 -2 10 -11 -34 -44 -51 -37 -10 4 -13 0 -9 -16 5 -18 3 -20 -12 -12
-15 8 -17 6 -13 -13 3 -16 2 -18 -5 -9 -7 11 -10 9 -15 -7 -3 -13 -13 -21 -26
-21 -12 0 -21 -5 -21 -10 0 -6 3 -9 8 -8 4 2 8 -1 10 -7 1 -5 -4 -10 -10 -10
-8 0 -12 -11 -10 -25 3 -24 2 -24 -14 -5 -15 19 -15 19 -10 1 5 -15 4 -17 -7
-7 -11 9 -17 8 -27 -3 -6 -9 -9 -20 -6 -25 4 -5 1 -13 -5 -17 -8 -5 -9 -3 -4
6 6 9 1 10 -16 5 -22 -6 -22 -5 6 19 17 14 24 25 17 26 -7 0 -10 5 -6 11 4 8
9 7 15 -2 6 -10 9 -11 9 -1 0 6 3 11 8 11 4 -1 14 -1 22 0 13 1 13 3 0 12 -12
9 -11 10 5 4 14 -4 17 -3 9 5 -6 6 -21 12 -34 15 -12 2 -20 2 -16 -2 7 -8 -13
-33 -26 -33 -6 0 -5 7 2 15 7 9 10 18 6 22 -3 3 -6 0 -6 -8 0 -12 -2 -12 -10
1 -5 8 -12 11 -17 7 -4 -5 -3 -11 3 -15 9 -6 10 -15 5 -39 -1 -5 -6 -1 -12 7
-9 13 -10 13 -6 0 2 -8 11 -14 21 -12 21 4 21 -7 -1 -24 -21 -15 -37 -18 -29
-5 4 5 -3 7 -13 4 -16 -4 -19 -1 -15 15 3 11 0 21 -8 25 -11 4 -14 -5 -14 -39
1 -38 3 -42 13 -27 12 16 13 16 13 -1 0 -9 5 -14 10 -11 6 4 7 11 4 17 -4 5 4
4 17 -2 34 -18 38 -24 12 -16 -30 9 -30 -7 -1 -23 l23 -12 -23 5 c-18 4 -21 2
-12 -9 9 -11 6 -13 -14 -11 -14 2 -23 0 -21 -5 3 -4 2 -9 -2 -12 -5 -2 -1 -2
7 0 8 2 4 -6 -10 -17 -21 -17 -22 -19 -5 -14 17 5 18 4 5 -8 -15 -13 -20 -71
-7 -84 11 -11 8 -26 -4 -18 -8 4 -8 1 -1 -12 5 -11 8 -27 7 -36 -2 -10 0 -20
4 -22 4 -3 6 -25 6 -50 -1 -25 3 -46 7 -46 5 0 7 -4 4 -9 -4 -5 0 -12 6 -14
10 -4 10 -6 1 -6 -9 -1 -10 -8 -3 -26 5 -14 7 -25 4 -25 -4 0 0 -8 7 -17 12
-15 12 -16 -1 -8 -12 7 -13 6 -4 -6 6 -8 10 -22 9 -31 -2 -10 2 -18 8 -18 5 0
8 -3 5 -6 -3 -3 7 -54 22 -113 132 -501 455 -993 860 -1308 77 -59 208 -153
215 -153 2 0 31 -17 62 -37 180 -115 493 -240 734 -291 128 -28 145 -31 214
-38 33 -3 81 -9 106 -13 46 -7 399 -6 454 2 17 3 59 8 95 12 164 18 403 80
585 152 217 86 486 243 671 393 326 264 606 657 757 1061 34 90 99 320 112
399 19 108 24 144 20 148 -2 3 0 13 6 23 7 14 6 19 -3 19 -10 0 -10 2 -1 8 6
4 10 20 9 35 -2 15 0 29 4 32 12 8 3 418 -11 501 -1 6 -15 11 -30 10 -15 -1
-25 -4 -23 -7 2 -3 -3 -6 -11 -6 -8 0 -12 4 -9 9 3 4 1 8 -4 8 -6 0 -17 18
-26 40 -9 23 -23 43 -31 46 -8 4 -15 12 -15 19 0 7 -16 20 -36 30 -19 9 -38
23 -41 31 -3 8 -12 14 -20 14 -8 0 -11 5 -8 10 6 9 -8 14 -27 11 -5 0 -8 8 -8
20 0 11 -4 17 -10 14 -9 -6 -14 10 -13 42 0 7 -4 11 -10 10 -6 -1 -11 7 -12
18 0 11 -5 19 -12 18 -6 -1 -10 8 -9 22 2 13 -3 26 -10 29 -13 5 -9 36 4 34
19 -2 23 4 12 17 -10 12 -10 15 0 15 10 0 10 3 1 14 -9 11 -9 15 1 19 9 4 8 6
-3 6 -9 1 -22 -6 -29 -14 -11 -13 -10 -14 4 -9 13 5 15 1 12 -17 -2 -13 -9
-23 -15 -22 -5 2 -8 -3 -5 -10 3 -8 -3 -13 -16 -13 -11 0 -20 4 -20 8 0 4 -8
5 -17 1 -12 -3 -9 1 6 12 18 14 20 19 10 26 -12 7 -12 9 0 9 8 0 11 6 7 16 -3
8 -2 13 3 10 5 -3 14 1 21 9 10 12 8 13 -10 10 -21 -4 -21 -3 -6 14 19 21 21
35 4 25 -7 -4 -5 1 4 12 14 16 15 23 6 32 -9 9 -9 12 1 12 7 0 9 5 6 11 -4 5
1 20 12 32 16 19 16 20 0 8 -15 -12 -17 -12 -11 2 3 8 12 18 21 21 12 5 13 9
4 20 -9 11 -9 16 0 21 8 6 7 10 -2 16 -9 6 -10 9 -2 9 7 0 10 10 7 25 -3 15 0
25 7 25 9 0 8 4 0 14 -9 11 -8 17 4 29 10 10 11 17 3 19 -8 3 -8 9 1 25 7 14
8 24 1 28 -7 4 -7 12 0 24 5 10 6 22 2 26 -4 3 -8 11 -8 16 -1 5 -3 11 -4 14
-1 3 -3 8 -4 13 -7 29 -19 52 -27 52 -6 0 -7 5 -4 10 3 6 3 10 -2 10 -4 0 -21
23 -38 50 -16 27 -33 50 -37 50 -5 0 -8 6 -8 14 0 8 -11 23 -25 34 -14 11 -25
25 -25 31 0 6 -5 11 -11 11 -5 0 -8 4 -5 9 7 10 -15 21 -35 17 -8 -1 -30 -10
-49 -19 -25 -12 -28 -15 -10 -11 l25 5 -23 -14 c-12 -7 -19 -17 -15 -22 4 -5
1 -4 -8 3 -14 11 -17 10 -15 -5 1 -17 -57 -53 -79 -48 -5 1 -7 0 -2 -2 14 -9
7 -23 -12 -23 -14 0 -19 -6 -16 -20 2 -11 0 -20 -5 -20 -10 0 -22 29 -15 40 3
5 0 12 -6 16 -8 4 -9 3 -5 -4 7 -12 -2 -14 -51 -15 -12 0 -20 -3 -18 -8 3 -4
19 -6 36 -4 20 3 29 0 27 -7 -2 -6 -18 -12 -36 -13 -17 -1 -29 2 -26 6 2 4 -8
7 -23 5 -16 -1 -27 -8 -25 -14 1 -9 -2 -9 -16 -1 -18 11 -26 39 -11 39 9 0 6
26 -4 36 -14 14 -7 26 8 14 9 -8 15 -8 15 -2 0 6 -6 12 -12 15 -10 3 -9 8 2
22 9 11 10 16 3 11 -7 -4 -13 -2 -13 3 0 6 5 11 12 11 6 0 9 2 7 5 -3 2 -20 0
-38 -5 -26 -7 -32 -6 -28 4 4 10 -1 12 -15 8 -11 -3 -23 -13 -25 -23 -3 -11
-11 -15 -20 -12 -12 5 -12 7 -1 14 11 7 11 9 0 9 -8 0 -16 -9 -19 -19 -3 -12
-11 -17 -19 -14 -9 3 -14 -1 -14 -12 0 -12 -6 -15 -22 -10 -21 5 -21 5 2 -10
l25 -15 -27 4 c-20 3 -25 1 -21 -10 3 -8 10 -11 16 -7 6 3 7 1 3 -6 -4 -6 -12
-8 -18 -5 -8 5 -9 1 -5 -10 4 -9 3 -15 -2 -11 -5 3 -17 -2 -25 -11 -9 -9 -16
-11 -16 -4 0 6 -5 8 -10 5 -6 -4 -8 -10 -5 -15 3 -5 1 -11 -4 -14 -5 -4 -8 2
-6 11 3 24 -6 38 -15 23 -5 -8 -9 -7 -13 5 -4 9 -3 13 3 10 6 -3 7 1 4 9 -3 9
-1 16 6 16 6 0 8 -5 4 -12 -5 -7 -3 -8 6 -3 9 6 11 4 5 -6 -6 -11 -5 -12 5 -2
8 7 12 14 9 15 -2 2 -20 14 -39 27 -27 19 -31 20 -19 5 16 -18 15 -49 0 -40
-4 3 -5 -9 -3 -26 4 -26 2 -30 -12 -25 -10 4 -21 7 -26 7 -5 0 -12 9 -15 20
-7 21 -26 28 -21 8 1 -7 1 -10 -1 -5 -3 4 -8 5 -13 2 -5 -3 -7 6 -6 19 2 14
-1 30 -5 38 -7 11 -9 11 -9 0 0 -8 -5 -10 -12 -6 -10 6 -10 4 0 -8 9 -12 10
-18 2 -23 -6 -4 -14 -4 -17 -1 -4 3 0 6 8 6 10 1 9 3 -3 11 -11 6 -15 16 -11
26 4 11 -1 9 -16 -6 -12 -12 -20 -29 -17 -36 3 -9 0 -12 -9 -9 -8 3 -16 13
-18 22 -4 15 -5 14 -6 -1 -1 -11 -6 -16 -13 -12 -7 4 -4 -1 7 -10 19 -16 19
-16 -10 -10 -29 6 -29 6 -11 -9 11 -9 15 -16 9 -16 -7 0 -15 5 -18 10 -3 6
-11 10 -16 10 -6 0 -7 -6 -3 -12 5 -8 1 -8 -12 2 -29 22 -30 23 -14 18 23 -8
52 11 46 29 -4 10 -2 13 7 10 8 -3 14 1 14 8 0 10 -5 11 -16 5 -9 -4 -19 -8
-24 -9 -14 -1 -42 -20 -30 -21 6 0 15 5 18 10 4 6 11 8 16 5 17 -11 9 -21 -17
-23 -15 -1 -34 -8 -42 -15 -10 -7 -13 -8 -9 -1 11 18 -19 24 -40 9 -10 -8 -22
-14 -28 -15 -5 0 -3 5 5 10 11 7 11 10 2 10 -7 0 -10 5 -6 11 4 8 9 7 15 -2 6
-10 9 -10 9 -2 0 20 -17 24 -33 8 -21 -20 -26 -19 -20 5 3 11 10 17 17 14 6
-3 0 4 -13 15 -12 12 -27 18 -32 15 -5 -3 -9 0 -9 6 0 6 -5 8 -11 4 -8 -4 -7
-9 2 -16 10 -6 6 -7 -11 -2 -14 4 -31 7 -37 7 -14 0 -7 11 8 13 5 1 14 2 19 3
6 0 10 6 10 12 0 8 -6 7 -17 -2 -15 -12 -16 -12 -9 6 7 18 5 18 -14 -3 -18
-19 -40 -22 -40 -6 0 3 4 3 8 0 4 -2 14 4 21 16 10 16 10 18 0 12 -9 -5 -10
-2 -6 10 4 11 3 15 -4 11 -6 -4 -8 -13 -5 -21 3 -8 -1 -14 -9 -14 -8 0 -15 -5
-15 -12 0 -6 -3 -8 -6 -5 -4 4 -2 12 4 20 8 10 6 16 -11 27 -20 12 -21 12 -9
-3 10 -12 10 -17 1 -23 -13 -8 -42 24 -34 37 3 4 1 10 -4 14 -6 3 -8 -6 -5
-21 3 -15 1 -23 -5 -20 -5 3 -12 0 -14 -6 -4 -10 -6 -10 -6 0 -1 7 -6 10 -11
7 -6 -3 -10 -1 -10 5 0 7 6 10 14 7 9 -4 13 0 12 11 -4 25 -25 26 -36 0 -10
-21 -10 -21 -5 5 4 18 2 26 -4 22 -7 -4 -9 1 -5 12 5 17 5 17 -9 0 -13 -16
-15 -16 -21 -2 -4 11 -2 14 6 9 7 -5 9 -2 5 9 -3 9 -1 17 6 20 6 2 4 6 -6 10
-9 3 -19 1 -23 -5 -5 -7 -2 -8 6 -3 9 5 11 4 6 -3 -11 -19 -29 -14 -21 6 13
32 14 52 3 58 -7 4 -8 2 -4 -4 4 -7 2 -12 -3 -12 -6 0 -11 -5 -11 -11 0 -5 5
-7 12 -3 7 4 8 3 4 -4 -5 -8 -13 -9 -25 -2 -10 5 -22 6 -26 2 -5 -4 -5 -1 -1
6 4 6 2 12 -3 12 -6 0 -11 6 -11 14 0 10 -10 14 -35 12 -25 -2 -33 0 -26 8 6
8 6 17 -1 26 -8 12 -9 12 -4 -2 5 -17 -9 -24 -37 -19 -5 1 -6 -3 -2 -9 3 -6
12 -7 18 -3 7 4 6 0 -2 -10 -14 -18 -26 -23 -17 -8 3 5 -1 11 -8 14 -10 4 -14
0 -11 -13 2 -11 -1 -23 -7 -26 -6 -4 -8 -3 -5 3 13 21 -37 23 -59 2 -16 -15
-21 -16 -21 -5 0 8 3 13 7 11 4 -2 7 2 7 10 0 13 -4 13 -25 -1 -13 -9 -22 -11
-18 -6 9 14 -15 21 -36 10 -11 -5 -18 -5 -18 1 0 5 6 12 13 14 6 3 7 6 1 6 -5
1 -19 -6 -30 -15 -10 -8 -13 -12 -5 -8 9 5 12 3 7 -4 -11 -17 -15 -15 -26 13
-7 19 -15 24 -32 21 -13 -2 -29 2 -37 8 -12 9 -13 8 -6 -3 6 -11 4 -13 -9 -8
-13 5 -17 3 -13 -6 3 -8 -1 -14 -8 -14 -8 0 -11 7 -7 16 5 13 3 14 -10 3 -12
-10 -20 -8 -42 9 -15 12 -25 27 -23 33 6 14 -28 15 -40 1 -5 -4 -3 -5 4 -1 6
3 14 2 17 -3 4 -5 -2 -8 -11 -6 -10 1 -17 8 -16 14 2 6 -4 11 -13 11 -8 0 -13
4 -10 9 3 5 -1 12 -10 15 -8 3 -12 2 -9 -4 3 -5 -1 -7 -9 -4 -9 3 -12 12 -9
21 4 11 2 14 -5 9 -6 -3 -15 2 -21 11 -6 11 -11 13 -11 5 0 -10 -4 -10 -16 2
-17 18 -39 22 -29 6 3 -6 -1 -7 -9 -4 -9 3 -16 10 -16 15 0 5 -12 9 -26 9 -14
0 -23 4 -19 10 3 6 -1 10 -10 10 -9 0 -14 4 -10 9 3 5 1 12 -5 16 -5 3 -10 17
-10 31 0 13 -5 24 -11 24 -6 0 -9 6 -6 14 3 7 -4 21 -15 30 -11 10 -17 24 -14
32 4 10 1 14 -6 11 -7 -2 -19 3 -26 12 -12 14 -13 14 -8 -4 5 -17 4 -18 -6 -5
-7 8 -17 15 -23 16 -20 2 -55 17 -55 23 0 3 -11 19 -25 34 -14 15 -47 71 -73
124 -47 97 -54 106 -82 96z m815 -643 c-3 -5 -14 -10 -23 -9 -14 0 -13 2 3 9
27 11 27 11 20 0z m88 -25 c-3 -9 -8 -14 -10 -11 -3 3 -2 9 2 15 9 16 15 13 8
-4z m110 -9 c4 -10 0 -12 -14 -9 -10 3 -16 9 -13 14 8 13 21 11 27 -5z m1240
-150 c3 -8 0 -16 -6 -19 -7 -3 -13 3 -13 14 0 22 12 25 19 5z m52 -6 c3 -5 -3
-15 -15 -22 -11 -7 -20 -17 -20 -22 0 -5 3 -6 7 -3 12 13 33 -14 24 -32 -12
-22 -11 -33 2 -49 9 -11 6 -13 -13 -10 -19 2 -25 9 -25 29 -1 18 3 25 12 22 7
-3 13 0 13 6 0 6 -4 11 -9 11 -16 0 -21 30 -9 55 12 26 23 31 33 15z m-860
-40 c3 -5 1 -10 -4 -10 -6 0 -11 5 -11 10 0 6 2 10 4 10 3 0 8 -4 11 -10z
m116 -5 c5 4 6 -1 2 -10 -5 -13 -7 -14 -14 -3 -7 11 -9 10 -9 -1 0 -8 -2 -12
-5 -9 -3 3 -2 13 2 24 4 11 8 13 11 6 2 -7 8 -10 13 -7z m279 -25 c0 -5 -5
-10 -11 -10 -5 0 -7 5 -4 10 3 6 8 10 11 10 2 0 4 -4 4 -10z m710 -5 c-7 -9
-15 -13 -19 -10 -3 3 1 10 9 15 21 14 24 12 10 -5z m331 -781 c8 -10 8 -14 0
-14 -6 0 -11 5 -11 10 0 6 -5 10 -11 10 -5 0 -7 -5 -3 -11 4 -8 0 -8 -15 0
-27 15 -27 19 4 19 13 0 30 -7 36 -14z m-4454 -577 c0 -8 -6 -14 -14 -14 -9 0
-10 4 -2 14 6 7 12 13 14 13 1 0 2 -6 2 -13z"/>
<path d="M3997 3933 c-10 -9 -9 -23 1 -23 5 0 9 7 9 15 0 17 -1 18 -10 8z"/>
<path d="M2380 4263 c0 -1 8 -7 18 -12 13 -7 19 -6 19 2 0 7 -9 13 -19 13 -10
0 -18 -1 -18 -3z"/>
<path d="M2857 4263 c-4 -3 -7 -11 -7 -17 0 -6 5 -5 12 2 6 6 9 14 7 17 -3 3
-9 2 -12 -2z"/>
<path d="M2897 4240 c7 -25 30 -45 30 -25 0 8 -4 12 -9 9 -4 -3 -8 2 -8 10 0
8 -4 17 -9 20 -5 4 -7 -3 -4 -14z"/>
<path d="M3976 4107 c3 -10 9 -15 12 -12 3 3 0 11 -7 18 -10 9 -11 8 -5 -6z"/>
<path d="M4005 4080 c-3 -5 -1 -10 4 -10 6 0 11 5 11 10 0 6 -2 10 -4 10 -3 0
-8 -4 -11 -10z"/>
<path d="M3300 4020 c8 -5 20 -10 25 -10 6 0 3 5 -5 10 -8 5 -19 10 -25 10 -5
0 -3 -5 5 -10z"/>
<path d="M3335 4000 c-3 -5 -1 -10 4 -10 6 0 11 5 11 10 0 6 -2 10 -4 10 -3 0
-8 -4 -11 -10z"/>
<path d="M3375 4000 c-3 -5 -1 -10 4 -10 6 0 11 5 11 10 0 6 -2 10 -4 10 -3 0
-8 -4 -11 -10z"/>
<path d="M3635 3968 c-16 -16 -17 -18 -2 -13 11 5 19 1 23 -9 8 -21 43 -41 40
-23 -1 6 -5 18 -9 25 -5 7 -2 14 7 18 9 3 14 10 11 14 -9 14 -50 7 -70 -12z
m44 -5 c-6 -7 -15 -10 -20 -7 -13 8 -3 21 15 21 12 0 13 -4 5 -14z"/>
<path d="M4060 3980 c0 -5 1 -11 2 -12 1 -2 -4 -14 -12 -28 -8 -16 -8 -21 -1
-14 12 11 25 64 16 64 -3 0 -5 -4 -5 -10z"/>
<path d="M3350 3971 c0 -5 8 -8 18 -7 9 2 21 -2 25 -8 6 -7 7 -6 5 3 -4 16
-48 26 -48 12z"/>
<path d="M3801 3964 c0 -11 3 -14 6 -6 3 7 2 16 -1 19 -3 4 -6 -2 -5 -13z"/>
<path d="M3773 3952 c-9 -15 -8 -19 3 -19 8 0 14 9 14 19 0 10 -1 18 -3 18 -1
0 -7 -8 -14 -18z"/>
<path d="M290 2719 c0 -5 5 -7 10 -4 6 3 10 8 10 11 0 2 -4 4 -10 4 -5 0 -10
-5 -10 -11z"/>
<path d="M198 2643 c7 -3 16 -2 19 1 4 3 -2 6 -13 5 -11 0 -14 -3 -6 -6z"/>
</g>
</svg>
